<?xml version="1.0" standalone="no"?>
<!DOCTYPE svg PUBLIC "-//W3C//DTD SVG 20010904//EN"
 "http://www.w3.org/TR/2001/REC-SVG-20010904/DTD/svg10.dtd">
<svg version="1.0" xmlns="http://www.w3.org/2000/svg"
 width="256.000000pt" height="256.000000pt" viewBox="0 0 256.000000 256.000000"
 preserveAspectRatio="xMidYMid meet">

<g transform="translate(0.000000,256.000000) scale(0.100000,-0.100000)"
fill="#000000" stroke="none">
<path d="M171 2548 c-66 -15 -145 -97 -160 -167 -16 -73 -16 -2129 0 -2202 9
-43 21 -63 63 -105 42 -42 62 -54 105 -63 73 -16 2129 -16 2202 0 43 9 63 21
105 63 42 42 54 62 63 105 16 73 16 2129 0 2202 -9 43 -21 63 -63 105 -42 42
-62 54 -105 63 -67 14 -2145 14 -2210 -1z m532 -298 c94 -47 150 -139 150
-247 0 -143 -107 -257 -252 -270 -105 -9 -220 56 -266 152 -24 50 -31 151 -15
202 53 160 234 238 383 163z m1282 -635 c116 -41 211 -135 255 -251 43 -117
50 -201 50 -637 0 -368 -2 -412 -17 -429 -14 -16 -34 -18 -192 -18 -141 0
-181 3 -198 15 -21 15 -22 20 -25 398 -4 317 -7 390 -20 430 -36 107 -105 153
-217 145 -85 -6 -130 -39 -173 -125 l-33 -68 -5 -376 c-5 -353 -6 -378 -24
-398 -18 -20 -29 -21 -193 -21 -160 0 -175 2 -193 20 -20 20 -20 33 -20 650 0
617 0 630 20 650 18 18 33 20 194 20 l175 0 20 -26 c15 -19 21 -41 21 -75 l0
-49 41 45 c45 49 138 100 209 115 71 14 267 5 325 -15z m-1214 -14 l24 -19 3
-599 c2 -329 0 -613 -3 -631 -12 -68 -25 -72 -213 -72 -155 0 -170 2 -190 20
l-22 21 0 629 c0 617 0 630 20 650 18 18 33 20 189 20 151 0 171 -2 192 -19z"/>
</g>
</svg>
